<svg id="visual" viewBox="0 0 540 960" width="540" height="960" xmlns="http://www.w3.org/2000/svg" xmlns:xlink="http://www.w3.org/1999/xlink" version="1.1"><path d="M480 960L485.3 940C490.7 920 501.3 880 502.2 840C503 800 494 760 490.3 720C486.7 680 488.3 640 492 600C495.7 560 501.3 520 507.7 480C514 440 521 400 519.2 360C517.3 320 506.7 280 502.2 240C497.7 200 499.3 160 504.7 120C510 80 519 40 523.5 20L528 0L540 0L540 20C540 40 540 80 540 120C540 160 540 200 540 240C540 280 540 320 540 360C540 400 540 440 540 480C540 520 540 560 540 600C540 640 540 680 540 720C540 760 540 800 540 840C540 880 540 920 540 940L540 960Z" fill="#76bb77"></path><path d="M377 960L387.8 940C398.7 920 420.3 880 429.3 840C438.3 800 434.7 760 439.2 720C443.7 680 456.3 640 465.3 600C474.3 560 479.7 520 478.7 480C477.7 440 470.3 400 469.5 360C468.7 320 474.3 280 478 240C481.7 200 483.3 160 478.8 120C474.3 80 463.7 40 458.3 20L453 0L529 0L524.5 20C520 40 511 80 505.7 120C500.3 160 498.7 200 503.2 240C507.7 280 518.3 320 520.2 360C522 400 515 440 508.7 480C502.3 520 496.7 560 493 600C489.3 640 487.7 680 491.3 720C495 760 504 800 503.2 840C502.3 880 491.7 920 486.3 940L481 960Z" fill="#4e8e50"></path><path d="M345 960L342.2 940C339.3 920 333.7 880 335.3 840C337 800 346 760 347.8 720C349.7 680 344.3 640 343.5 600C342.7 560 346.3 520 363.5 480C380.7 440 411.3 400 428.5 360C445.7 320 449.3 280 430.3 240C411.3 200 369.7 160 347.2 120C324.7 80 321.3 40 319.7 20L318 0L454 0L459.3 20C464.7 40 475.3 80 479.8 120C484.3 160 482.7 200 479 240C475.3 280 469.7 320 470.5 360C471.3 400 478.7 440 479.7 480C480.7 520 475.3 560 466.3 600C457.3 640 444.7 680 440.2 720C435.7 760 439.3 800 430.3 840C421.3 880 399.7 920 388.8 940L378 960Z" fill="#26622b"></path><path d="M285 960L290.5 940C296 920 307 880 308.8 840C310.7 800 303.3 760 304.2 720C305 680 314 640 314.8 600C315.7 560 308.3 520 321 480C333.7 440 366.3 400 388 360C409.7 320 420.3 280 401.3 240C382.3 200 333.7 160 312 120C290.3 80 295.7 40 298.3 20L301 0L319 0L320.7 20C322.3 40 325.7 80 348.2 120C370.7 160 412.3 200 431.3 240C450.3 280 446.7 320 429.5 360C412.3 400 381.7 440 364.5 480C347.3 520 343.7 560 344.5 600C345.3 640 350.7 680 348.8 720C347 760 338 800 336.3 840C334.7 880 340.3 920 343.2 940L346 960Z" fill="#00420f"></path><path d="M129 960L142.5 940C156 920 183 880 189.2 840C195.3 800 180.7 760 189.7 720C198.7 680 231.3 640 228.7 600C226 560 188 520 181.7 480C175.3 440 200.7 400 213.3 360C226 320 226 280 220.5 240C215 200 204 160 189.5 120C175 80 157 40 148 20L139 0L302 0L299.3 20C296.7 40 291.3 80 313 120C334.7 160 383.3 200 402.3 240C421.3 280 410.7 320 389 360C367.3 400 334.7 440 322 480C309.3 520 316.7 560 315.8 600C315 640 306 680 305.2 720C304.3 760 311.7 800 309.8 840C308 880 297 920 291.5 940L286 960Z" fill="#00420f"></path><path d="M37 960L55 940C73 920 109 880 113.5 840C118 800 91 760 83.8 720C76.7 680 89.3 640 91.2 600C93 560 84 520 88.5 480C93 440 111 400 106.5 360C102 320 75 280 63.2 240C51.3 200 54.7 160 57.3 120C60 80 62 40 63 20L64 0L140 0L149 20C158 40 176 80 190.5 120C205 160 216 200 221.5 240C227 280 227 320 214.3 360C201.7 400 176.3 440 182.7 480C189 520 227 560 229.7 600C232.3 640 199.7 680 190.7 720C181.7 760 196.3 800 190.2 840C184 880 157 920 143.5 940L130 960Z" fill="#26622b"></path><path d="M15 960L26.7 940C38.3 920 61.7 880 68 840C74.3 800 63.7 760 64.7 720C65.7 680 78.3 640 75.7 600C73 560 55 520 54 480C53 440 69 400 67.2 360C65.3 320 45.7 280 37.7 240C29.7 200 33.3 160 37.8 120C42.3 80 47.7 40 50.3 20L53 0L65 0L64 20C63 40 61 80 58.3 120C55.7 160 52.3 200 64.2 240C76 280 103 320 107.5 360C112 400 94 440 89.5 480C85 520 94 560 92.2 600C90.3 640 77.7 680 84.8 720C92 760 119 800 114.5 840C110 880 74 920 56 940L38 960Z" fill="#4e8e50"></path><path d="M0 960L0 940C0 920 0 880 0 840C0 800 0 760 0 720C0 680 0 640 0 600C0 560 0 520 0 480C0 440 0 400 0 360C0 320 0 280 0 240C0 200 0 160 0 120C0 80 0 40 0 20L0 0L54 0L51.3 20C48.7 40 43.3 80 38.8 120C34.3 160 30.7 200 38.7 240C46.7 280 66.3 320 68.2 360C70 400 54 440 55 480C56 520 74 560 76.7 600C79.3 640 66.7 680 65.7 720C64.7 760 75.3 800 69 840C62.7 880 39.3 920 27.7 940L16 960Z" fill="#76bb77"></path></svg>