<svg id="visual" viewBox="0 0 675 900" width="675" height="900" xmlns="http://www.w3.org/2000/svg" xmlns:xlink="http://www.w3.org/1999/xlink" version="1.1"><path d="M600 900L606.7 881.3C613.3 862.7 626.7 825.3 627.8 787.8C629 750.3 618 712.7 613.5 675.2C609 637.7 611 600.3 615.5 562.8C620 525.3 627 487.7 635 450.2C643 412.7 652 375.3 649.7 337.8C647.3 300.3 633.7 262.7 628 225.2C622.3 187.7 624.7 150.3 631.5 112.8C638.3 75.3 649.7 37.7 655.3 18.8L661 0L675 0L675 18.8C675 37.7 675 75.3 675 112.8C675 150.3 675 187.7 675 225.2C675 262.7 675 300.3 675 337.8C675 375.3 675 412.7 675 450.2C675 487.7 675 525.3 675 562.8C675 600.3 675 637.7 675 675.2C675 712.7 675 750.3 675 787.8C675 825.3 675 862.7 675 881.3L675 900Z" fill="#76bb77"></path><path d="M471 900L484.7 881.3C498.3 862.7 525.7 825.3 537 787.8C548.3 750.3 543.7 712.7 549.2 675.2C554.7 637.7 570.3 600.3 581.7 562.8C593 525.3 600 487.7 599 450.2C598 412.7 589 375.3 587.8 337.8C586.7 300.3 593.3 262.7 597.8 225.2C602.3 187.7 604.7 150.3 599 112.8C593.3 75.3 579.7 37.7 572.8 18.8L566 0L662 0L656.3 18.8C650.7 37.7 639.3 75.3 632.5 112.8C625.7 150.3 623.3 187.7 629 225.2C634.7 262.7 648.3 300.3 650.7 337.8C653 375.3 644 412.7 636 450.2C628 487.7 621 525.3 616.5 562.8C612 600.3 610 637.7 614.5 675.2C619 712.7 630 750.3 628.8 787.8C627.7 825.3 614.3 862.7 607.7 881.3L601 900Z" fill="#4e8e50"></path><path d="M431 900L427.7 881.3C424.3 862.7 417.7 825.3 419.8 787.8C422 750.3 433 712.7 435.2 675.2C437.3 637.7 430.7 600.3 429.7 562.8C428.7 525.3 433.3 487.7 454.8 450.2C476.3 412.7 514.7 375.3 536 337.8C557.3 300.3 561.7 262.7 538 225.2C514.3 187.7 462.7 150.3 434.5 112.8C406.3 75.3 401.7 37.7 399.3 18.8L397 0L567 0L573.8 18.8C580.7 37.7 594.3 75.3 600 112.8C605.7 150.3 603.3 187.7 598.8 225.2C594.3 262.7 587.7 300.3 588.8 337.8C590 375.3 599 412.7 600 450.2C601 487.7 594 525.3 582.7 562.8C571.3 600.3 555.7 637.7 550.2 675.2C544.7 712.7 549.3 750.3 538 787.8C526.7 825.3 499.3 862.7 485.7 881.3L472 900Z" fill="#26622b"></path><path d="M357 900L363.7 881.3C370.3 862.7 383.7 825.3 385.8 787.8C388 750.3 379 712.7 380.2 675.2C381.3 637.7 392.7 600.3 393.8 562.8C395 525.3 386 487.7 401.8 450.2C417.7 412.7 458.3 375.3 485.3 337.8C512.3 300.3 525.7 262.7 502 225.2C478.3 187.7 417.7 150.3 390.7 112.8C363.7 75.3 370.3 37.7 373.7 18.8L377 0L398 0L400.3 18.8C402.7 37.7 407.3 75.3 435.5 112.8C463.7 150.3 515.3 187.7 539 225.2C562.7 262.7 558.3 300.3 537 337.8C515.7 375.3 477.3 412.7 455.8 450.2C434.3 487.7 429.7 525.3 430.7 562.8C431.7 600.3 438.3 637.7 436.2 675.2C434 712.7 423 750.3 420.8 787.8C418.7 825.3 425.3 862.7 428.7 881.3L432 900Z" fill="#00420f"></path><path d="M161 900L177.8 881.3C194.7 862.7 228.3 825.3 236.2 787.8C244 750.3 226 712.7 237.3 675.2C248.7 637.7 289.3 600.3 286 562.8C282.7 525.3 235.3 487.7 227.5 450.2C219.7 412.7 251.3 375.3 267.2 337.8C283 300.3 283 262.7 276.2 225.2C269.3 187.7 255.7 150.3 237.7 112.8C219.7 75.3 197.3 37.7 186.2 18.8L175 0L378 0L374.7 18.8C371.3 37.7 364.7 75.3 391.7 112.8C418.7 150.3 479.3 187.7 503 225.2C526.7 262.7 513.3 300.3 486.3 337.8C459.3 375.3 418.7 412.7 402.8 450.2C387 487.7 396 525.3 394.8 562.8C393.7 600.3 382.3 637.7 381.2 675.2C380 712.7 389 750.3 386.8 787.8C384.7 825.3 371.3 862.7 364.7 881.3L358 900Z" fill="#00420f"></path><path d="M46 900L68.5 881.3C91 862.7 136 825.3 141.7 787.8C147.3 750.3 113.7 712.7 104.7 675.2C95.7 637.7 111.3 600.3 113.7 562.8C116 525.3 105 487.7 110.7 450.2C116.3 412.7 138.7 375.3 133 337.8C127.3 300.3 93.7 262.7 79 225.2C64.3 187.7 68.7 150.3 72 112.8C75.3 75.3 77.7 37.7 78.8 18.8L80 0L176 0L187.2 18.8C198.3 37.7 220.7 75.3 238.7 112.8C256.7 150.3 270.3 187.7 277.2 225.2C284 262.7 284 300.3 268.2 337.8C252.3 375.3 220.7 412.7 228.5 450.2C236.3 487.7 283.7 525.3 287 562.8C290.3 600.3 249.7 637.7 238.3 675.2C227 712.7 245 750.3 237.2 787.8C229.3 825.3 195.7 862.7 178.8 881.3L162 900Z" fill="#26622b"></path><path d="M19 900L33.7 881.3C48.3 862.7 77.7 825.3 85.5 787.8C93.3 750.3 79.7 712.7 80.8 675.2C82 637.7 98 600.3 94.7 562.8C91.3 525.3 68.7 487.7 67.5 450.2C66.3 412.7 86.7 375.3 84.5 337.8C82.3 300.3 57.7 262.7 47.5 225.2C37.3 187.7 41.7 150.3 47.2 112.8C52.7 75.3 59.3 37.7 62.7 18.8L66 0L81 0L79.8 18.8C78.7 37.7 76.3 75.3 73 112.8C69.7 150.3 65.3 187.7 80 225.2C94.7 262.7 128.3 300.3 134 337.8C139.7 375.3 117.3 412.7 111.7 450.2C106 487.7 117 525.3 114.7 562.8C112.3 600.3 96.7 637.7 105.7 675.2C114.7 712.7 148.3 750.3 142.7 787.8C137 825.3 92 862.7 69.5 881.3L47 900Z" fill="#4e8e50"></path><path d="M0 900L0 881.3C0 862.7 0 825.3 0 787.8C0 750.3 0 712.7 0 675.2C0 637.7 0 600.3 0 562.8C0 525.3 0 487.7 0 450.2C0 412.7 0 375.3 0 337.8C0 300.3 0 262.7 0 225.2C0 187.7 0 150.3 0 112.8C0 75.3 0 37.7 0 18.8L0 0L67 0L63.7 18.8C60.3 37.7 53.7 75.3 48.2 112.8C42.7 150.3 38.3 187.7 48.5 225.2C58.7 262.7 83.3 300.3 85.5 337.8C87.7 375.3 67.3 412.7 68.5 450.2C69.7 487.7 92.3 525.3 95.7 562.8C99 600.3 83 637.7 81.8 675.2C80.7 712.7 94.3 750.3 86.5 787.8C78.7 825.3 49.3 862.7 34.7 881.3L20 900Z" fill="#76bb77"></path></svg>